<?xml version="1.0" standalone="no"?>
<!DOCTYPE svg PUBLIC "-//W3C//DTD SVG 20010904//EN"
 "http://www.w3.org/TR/2001/REC-SVG-20010904/DTD/svg10.dtd">
<svg version="1.0" xmlns="http://www.w3.org/2000/svg"
 width="800.000000pt" height="800.000000pt" viewBox="0 0 800.000000 800.000000"
 preserveAspectRatio="xMidYMid meet">
<metadata>
Created by potrace 1.14, written by Peter Selinger 2001-2017
</metadata>
<g transform="translate(0.000000,800.000000) scale(0.100000,-0.100000)"
fill="#000000" stroke="none">
<path d="M1924 7985 c-55 -23 -108 -86 -120 -142 -1 -6 -5 -48 -8 -93 -16
-239 -118 -430 -310 -583 -115 -92 -275 -153 -431 -163 -100 -7 -106 -8 -147
-28 -68 -33 -108 -105 -103 -188 4 -76 29 -117 100 -164 57 -37 272 -24 438
28 40 12 74 22 77 23 45 13 173 79 240 124 53 34 66 45 112 84 12 9 23 17 25
17 2 0 3 -39 3 -87 -2 -84 -29 -252 -48 -290 -5 -10 -20 -40 -33 -68 -13 -27
-40 -75 -60 -105 -39 -60 -142 -170 -158 -170 -5 0 -11 -4 -13 -8 -8 -20 -198
-132 -198 -117 0 3 -13 -1 -30 -10 -16 -9 -30 -13 -30 -9 0 4 -6 1 -14 -5 -8
-6 -18 -11 -22 -10 -5 1 -11 0 -14 -1 -3 -1 -14 -3 -25 -5 -18 -4 -44 -7 -184
-20 -92 -8 -174 -103 -169 -195 3 -75 37 -135 97 -172 68 -43 288 -28 469 31
96 32 254 106 260 122 2 5 8 9 13 9 6 0 35 19 66 43 30 23 64 48 74 55 17 13
18 -18 18 -943 0 -604 -3 -954 -9 -950 -5 3 -81 6 -167 5 -87 0 -179 -1 -205
-1 -43 0 -110 0 -153 0 -8 0 -68 0 -132 1 -192 2 -227 -7 -286 -74 -99 -113
-29 -300 123 -322 14 -2 120 -4 235 -4 211 0 291 -1 485 -3 l105 -2 2 -270 c2
-393 5 -414 72 -473 81 -73 222 -62 283 21 47 63 48 72 49 407 l0 319 407 1
c224 0 414 1 422 1 8 0 152 0 320 0 168 0 312 0 320 0 8 0 260 0 560 0 300 0
552 0 560 0 8 0 116 0 240 0 124 0 232 0 240 0 8 0 322 0 697 -1 741 -2 711 0
771 -56 65 -61 78 -181 27 -254 -45 -65 -85 -83 -195 -87 -171 -6 -270 -6
-275 -1 -2 2 -29 1 -59 -2 -30 -3 -62 -3 -72 0 -9 4 -36 3 -59 0 -23 -3 -50
-3 -60 0 -10 3 -38 3 -61 0 -24 -4 -46 -5 -48 -2 -3 2 -76 3 -163 3 -87 -1
-165 -2 -173 -2 -8 0 -44 0 -80 0 -60 0 -202 1 -225 2 -5 1 -28 0 -50 0 -22
-1 -48 -1 -57 0 -39 1 -154 0 -173 -1 -11 -1 -24 -1 -30 -1 -5 0 -80 0 -165 0
-85 0 -164 0 -175 0 -99 1 -150 0 -213 -2 -39 -1 -72 2 -72 6 0 5 -4 6 -8 3
-8 -5 -26 -8 -104 -21 -35 -6 -90 -21 -123 -34 -73 -30 -125 -56 -125 -63 0
-5 -4 -7 -9 -3 -5 3 -15 0 -23 -7 -7 -7 -31 -26 -52 -42 -43 -32 -136 -122
-136 -132 0 -3 -6 -11 -12 -19 -31 -32 -45 -54 -77 -120 -61 -125 -80 -194
-87 -313 -2 -45 -5 -86 -5 -90 -1 -4 0 -9 1 -12 1 -3 3 -14 4 -25 12 -88 19
-121 41 -184 13 -39 34 -90 47 -114 73 -135 205 -268 323 -327 17 -8 32 -18
35 -21 6 -6 166 -59 195 -65 11 -1 42 -5 68 -8 27 -3 52 -8 57 -11 5 -3 11 -1
15 5 4 6 10 8 14 5 7 -4 59 -5 236 -4 57 0 151 0 160 0 6 1 39 0 75 0 36 0 74
0 85 0 11 0 49 0 85 0 36 0 70 0 75 0 6 1 39 0 75 0 36 0 74 0 85 0 11 0 49 0
85 0 36 0 70 0 75 0 6 1 39 0 75 0 36 0 74 0 85 0 11 0 47 0 80 0 167 -1 206
7 257 51 48 41 67 89 63 157 -5 98 -65 169 -155 185 -32 5 -291 10 -315 5 -5
-1 -14 -1 -19 0 -6 1 -57 2 -115 1 -58 -1 -110 -1 -116 -1 -5 0 -93 0 -195 1
-102 0 -189 0 -195 -1 -5 -1 -14 -1 -19 0 -6 1 -57 2 -115 1 -58 -1 -122 -1
-141 -1 -19 1 -96 3 -170 4 -115 3 -144 7 -194 28 -85 34 -182 134 -216 219
-48 124 -32 262 42 377 44 67 143 139 223 160 34 9 231 14 490 12 44 0 85 1
90 2 6 1 14 1 18 0 12 -2 260 -2 272 0 6 1 14 1 19 0 5 -1 63 -1 130 -1 66 1
126 1 131 1 6 0 57 0 115 -1 58 -1 110 0 115 1 6 1 14 1 19 0 6 -1 57 -2 115
-1 125 2 101 2 231 0 58 -1 110 0 115 1 6 1 14 1 19 0 6 -1 57 -2 115 -1 58 1
113 1 121 1 255 -5 350 8 465 66 62 32 185 131 185 149 0 3 9 15 21 27 35 38
87 153 105 233 65 293 -114 603 -401 694 -84 26 -118 29 -345 29 -96 0 -196 0
-222 0 -58 0 -133 0 -150 0 -7 0 -62 0 -123 1 -60 0 -150 0 -198 0 -48 0 -92
2 -98 5 -5 4 -9 1 -9 -5 0 -6 -4 -8 -10 -5 -5 3 -81 6 -167 5 -87 0 -179 -1
-205 -1 -52 0 -131 0 -150 0 -7 0 -62 0 -123 1 -60 0 -150 0 -198 0 -48 0 -92
2 -98 5 -5 4 -9 1 -9 -5 0 -6 -4 -8 -10 -5 -5 3 -81 6 -167 5 -87 0 -180 -1
-208 -1 -27 0 -72 0 -100 0 -27 0 -57 0 -65 0 -81 2 -268 2 -275 0 -31 -6
-145 3 -145 11 0 13 62 114 72 118 4 2 8 8 8 13 0 5 16 33 35 63 19 30 35 60
35 66 0 5 4 10 9 10 5 0 14 14 21 30 7 17 16 30 20 30 5 0 13 12 19 28 6 15
48 86 93 157 46 72 89 143 97 158 8 15 18 27 23 27 4 0 8 5 8 11 0 6 8 23 19
37 10 15 28 43 39 62 11 19 62 103 114 185 51 83 118 191 148 240 30 50 58 92
63 93 4 2 7 10 7 18 0 8 5 14 10 14 6 0 10 6 10 14 0 8 6 21 13 28 18 19 107
167 107 178 0 6 4 10 8 10 5 0 14 10 20 23 16 31 35 63 226 368 l169 271 31
-33 c17 -19 60 -68 96 -109 36 -41 70 -80 75 -86 10 -11 80 -91 141 -162 71
-82 206 -92 283 -21 11 11 21 18 21 16 0 -1 120 118 267 265 l268 268 75 0
c41 1 83 1 93 1 9 0 50 0 90 -1 41 -1 78 0 83 1 5 1 14 1 19 0 6 -2 48 -2 95
-1 47 1 82 -2 78 -5 -10 -11 53 -75 93 -95 61 -32 114 -31 178 2 70 36 102 82
108 158 5 62 -5 89 -69 190 -22 36 -46 74 -52 85 -6 11 -28 46 -49 78 -20 31
-37 61 -37 66 0 5 -4 11 -8 13 -10 4 -202 316 -202 327 0 5 -3 11 -7 13 -9 4
-123 182 -123 193 0 3 -6 12 -12 20 -7 7 -58 87 -113 177 -91 148 -202 288
-229 288 -5 0 -17 6 -25 14 -9 7 -47 26 -86 41 -87 35 -220 43 -311 19 -142
-37 -269 -138 -344 -274 -13 -25 -28 -49 -32 -55 -5 -5 -21 -30 -37 -55 -15
-25 -51 -82 -79 -128 -29 -45 -52 -84 -52 -86 0 -5 -66 -107 -78 -121 -5 -6
-11 -16 -13 -21 -2 -6 -76 -126 -164 -268 -88 -141 -169 -271 -180 -289 -24
-40 -159 -258 -190 -307 -12 -19 -36 -57 -53 -85 -17 -27 -36 -55 -41 -61 -4
-6 -12 -20 -15 -32 -4 -12 -12 -22 -17 -22 -5 0 -9 -4 -9 -9 0 -5 -36 -66 -80
-136 -44 -70 -80 -130 -80 -135 0 -5 -7 -15 -15 -23 -8 -8 -27 -37 -43 -63
-16 -27 -74 -122 -130 -211 -56 -90 -102 -167 -102 -173 0 -5 -3 -10 -7 -10
-5 0 -20 -21 -36 -48 -15 -26 -32 -54 -37 -62 -51 -78 -267 -428 -292 -473
-18 -31 -36 -57 -40 -57 -5 0 -8 -4 -8 -10 0 -5 -43 -78 -96 -162 -53 -84
-101 -162 -107 -173 -7 -11 -29 -45 -49 -77 -21 -31 -38 -60 -38 -64 0 -4 -11
-22 -25 -40 -14 -18 -25 -35 -25 -39 0 -3 -8 -18 -19 -33 -10 -15 -40 -62 -67
-104 -46 -76 -49 -78 -88 -79 -23 -1 -44 -1 -47 -1 -9 1 -93 2 -109 1 -28 -1
-195 0 -240 2 -25 1 -51 1 -57 0 -24 -2 -38 -2 -178 -2 -164 0 -243 1 -305 4
l-45 2 -2 948 c-1 521 0 947 2 947 2 0 10 -6 17 -12 34 -32 98 -78 107 -78 6
0 11 -4 11 -8 0 -19 253 -139 332 -157 13 -3 52 -12 88 -21 36 -8 116 -17 179
-18 99 -3 119 -1 150 16 167 91 131 340 -54 374 -5 1 -48 5 -95 8 -104 9 -85
5 -196 42 -242 81 -429 271 -504 510 -30 97 -30 96 -36 227 -5 113 -5 118 13
109 10 -6 27 -19 39 -30 65 -62 324 -202 372 -202 10 0 22 -3 26 -7 3 -4 12
-8 19 -9 7 -2 23 -6 37 -9 14 -3 40 -8 59 -11 19 -2 38 -7 44 -11 19 -12 237
-12 260 0 85 45 121 99 122 187 2 74 -30 132 -95 173 -24 15 -53 20 -175 32
-272 27 -494 175 -629 419 -53 95 -83 196 -91 309 -9 128 -19 160 -66 210 -45
48 -152 69 -215 42z m4152 -416 c25 -23 134 -194 134 -209 0 -5 4 -10 8 -12 4
-1 37 -50 72 -108 35 -58 68 -106 72 -108 4 -2 8 -7 8 -12 0 -9 132 -227 150
-247 5 -7 10 -17 10 -23 0 -5 4 -10 9 -10 5 0 11 -9 14 -20 5 -19 -1 -19 -172
-19 -178 0 -240 -5 -276 -23 -11 -6 -127 -117 -258 -247 l-237 -236 -28 30
c-15 17 -72 82 -127 145 -55 63 -106 121 -112 128 -7 7 -13 17 -13 21 0 8 136
235 153 256 11 14 206 327 214 345 4 8 20 34 35 56 15 23 28 46 28 52 0 6 4
12 8 14 4 2 37 50 72 108 81 132 105 153 173 146 22 -3 49 -14 63 -27z"/>
</g>
</svg>
